<svg width="18" height="18" viewBox="0 0 18 18" fill="none" xmlns="http://www.w3.org/2000/svg">
<path d="M5 6C5.55228 6 6 5.55228 6 5C6 4.44772 5.55228 4 5 4C4.44772 4 4 4.44772 4 5C4 5.55228 4.44772 6 5 6Z" fill="#64A6F3"/>
<path d="M6 12C5.44772 12 5 12.4477 5 13C5 13.5523 5.44772 14 6 14H12C12.5523 14 13 13.5523 13 13C13 12.4477 12.5523 12 12 12H6Z" fill="#64A6F3"/>
<path d="M6 9C6 9.55228 5.55228 10 5 10C4.44772 10 4 9.55228 4 9C4 8.44771 4.44772 8 5 8C5.55228 8 6 8.44771 6 9Z" fill="#64A6F3"/>
<path d="M9 6C9.55228 6 10 5.55228 10 5C10 4.44772 9.55228 4 9 4C8.44771 4 8 4.44772 8 5C8 5.55228 8.44771 6 9 6Z" fill="#64A6F3"/>
<path d="M10 9C10 9.55228 9.55228 10 9 10C8.44771 10 8 9.55228 8 9C8 8.44771 8.44771 8 9 8C9.55228 8 10 8.44771 10 9Z" fill="#64A6F3"/>
<path d="M13 6C13.5523 6 14 5.55228 14 5C14 4.44772 13.5523 4 13 4C12.4477 4 12 4.44772 12 5C12 5.55228 12.4477 6 13 6Z" fill="#64A6F3"/>
<path d="M14 9C14 9.55228 13.5523 10 13 10C12.4477 10 12 9.55228 12 9C12 8.44771 12.4477 8 13 8C13.5523 8 14 8.44771 14 9Z" fill="#64A6F3"/>
<path fill-rule="evenodd" clip-rule="evenodd" d="M0 3C0 1.34315 1.34315 0 3 0H15C16.6569 0 18 1.34315 18 3V15C18 16.6569 16.6569 18 15 18H3C1.34315 18 0 16.6569 0 15V3ZM3 2H15C15.5523 2 16 2.44772 16 3V15C16 15.5523 15.5523 16 15 16H3C2.44772 16 2 15.5523 2 15V3C2 2.44772 2.44772 2 3 2Z" fill="#64A6F3"/>
</svg>
