<svg width="24" height="24" viewBox="0 0 24 24" fill="none" xmlns="http://www.w3.org/2000/svg">
<path d="M7.89431 18.4834L5.5332 17.5717C5.84875 18.8394 6.99353 19.7787 8.36029 19.7787C9.96922 19.7787 11.2754 18.4743 11.2754 16.8635C11.2754 15.2564 9.96922 13.9502 8.36029 13.9502C7.78057 13.9502 7.2412 14.1208 6.78806 14.4125L9.11981 15.3115C9.99491 15.6509 10.4315 16.6342 10.094 17.5093C9.75458 18.3862 8.77124 18.8247 7.89431 18.4834Z" fill="#64A6F3"/>
<path d="M16.8891 11.6755C18.8815 11.6755 20.5014 10.0556 20.5014 8.06322C20.5014 6.07086 18.8815 4.45093 16.8891 4.45093C14.8986 4.45093 13.2769 6.07086 13.2769 8.06322C13.2769 10.0537 14.8986 11.6755 16.8891 11.6755ZM16.8891 5.51865C18.2944 5.51865 19.4355 6.65976 19.4355 8.06322C19.4355 9.46667 18.2944 10.6078 16.8891 10.6078C15.4857 10.6078 14.3446 9.46667 14.3446 8.06322C14.3446 6.65976 15.4857 5.51865 16.8891 5.51865Z" fill="#64A6F3"/>
<path d="M20.8537 0.00195312H3.14631C1.40712 0.00195312 0 1.41091 0 3.14826V11.7873L4.57728 13.5558C5.46338 12.5303 6.76227 11.8735 8.21893 11.8497L10.969 8.18052C10.969 4.92781 13.6071 2.29151 16.858 2.29151C20.1107 2.29151 22.747 4.92781 22.747 8.18052C22.747 9.96557 21.9508 11.5653 20.6959 12.6459C19.663 13.532 18.3238 14.0695 16.858 14.0695C16.7039 14.0695 16.5516 14.0622 16.4012 14.0493L13.2053 16.4582C13.2127 16.5591 13.2163 16.6618 13.2163 16.7645C13.2163 19.4797 11.0148 21.6849 8.29965 21.6849C5.58447 21.6849 3.38297 19.4815 3.38297 16.7645C3.38297 16.7572 3.38297 16.7462 3.38297 16.737L0 15.4308V20.852C0 22.5893 1.40896 23.9983 3.14631 23.9983H20.8537C22.591 23.9983 24 22.5893 24 20.852V3.1501C24 1.41275 22.591 0.00195312 20.8537 0.00195312Z" fill="#64A6F3"/>
</svg>
