<svg width="429" height="429" viewBox="0 0 429 429" fill="none" xmlns="http://www.w3.org/2000/svg">
<g clip-path="url(#clip0_3_54)">
<path d="M145.76 103.538C134.606 114.692 128.447 129.542 128.447 145.35C128.447 161.157 134.606 176.007 145.76 187.161L158.762 200.164C168.685 210.086 185.519 221.035 218.435 204.064L269.211 151.919C287.688 133.032 311.434 122.356 336.001 121.74H336.959C375.349 120.988 409.702 140.97 428.863 171.696V68.8426C429 30.7944 398.206 0 360.157 0H238.896L145.76 103.538Z" fill="url(#paint0_linear_3_54)"/>
<path d="M420.536 263.012L242 442H342.495C397.391 442 442 397.476 442 342.463V236C435.867 245.696 428.746 254.799 420.536 263.012Z" fill="url(#paint1_linear_3_54)"/>
<path d="M380.687 271.812C393.005 259.494 399.232 242.454 397.863 225.141L397.727 223.43C395.195 192.773 369.396 169.095 338.738 169.095C338.328 169.095 337.986 169.095 337.575 169.095C325.257 169.369 312.803 175.186 303.154 185.04L247.45 242.318L244.371 244.028C199.205 268.938 156.915 265.242 125.436 233.764L112.434 220.762C92.3147 200.643 81.2288 173.886 81.2288 145.486C81.2288 117.292 92.1094 90.7408 111.955 70.6902L175.254 0H68.8426C30.7944 0 0 30.7944 0 68.8426V360.157C0 398.137 30.7944 429 68.8426 429H223.773L380.687 271.812Z" fill="url(#paint2_linear_3_54)"/>
<path d="M205.319 289.051L202.913 295.59C197.36 310.672 189.37 324.458 179.19 336.548C166.542 351.599 159.571 370.69 159.571 390.336C159.571 421.64 146.337 451.865 123.293 473.239C99.9712 494.89 69.5545 505.468 37.688 503.124C-17.5309 498.992 -62.2612 454.271 -66.3949 399.095C-68.8011 367.235 -58.1892 336.856 -36.5027 313.509C-19.937 295.682 2.3356 283.469 26.3049 279.09L56.4439 276.437V235.757H46.4181C3.60038 235.757 -37.7058 253.799 -66.9194 285.289C-96.5339 317.179 -111.033 358.692 -107.763 402.21C-102.087 477.68 -40.914 538.839 34.5723 544.514C38.6135 544.823 42.5929 544.977 46.6032 544.977C85.6883 544.977 122.552 530.543 151.519 503.71C183.015 474.503 201.062 433.206 201.062 390.398C201.062 380.497 204.579 370.875 210.964 363.288C226.049 345.369 237.34 324.797 244.527 302.128L248.661 289.082L219.698 302.128L205.319 289.051Z" fill="url(#paint3_linear_3_54)"/>
<path d="M611.038 78.648L608.771 72.4916C603.539 58.2911 596.011 45.3103 586.42 33.9267C574.503 19.7553 567.934 1.77966 567.934 -16.7187C567.934 -46.1941 555.466 -74.6531 533.754 -94.7777C511.781 -115.164 483.123 -125.124 453.099 -122.917C401.073 -119.026 358.929 -76.9182 355.034 -24.966C352.767 5.03211 362.765 33.6363 383.198 55.6195C398.806 72.4045 419.791 83.9042 442.374 88.0279L470.77 90.5253V128.829H461.324C420.982 128.829 382.064 111.841 354.54 82.1909C326.637 52.1637 312.977 13.0761 316.058 -27.899C321.406 -98.9594 379.041 -156.545 450.163 -161.889C453.971 -162.179 457.72 -162.324 461.499 -162.324C498.324 -162.324 533.056 -148.734 560.348 -123.469C590.024 -95.9683 607.027 -57.084 607.027 -16.7768C607.027 -7.455 610.34 1.60542 616.357 8.74922C630.569 25.6213 641.207 44.9909 647.979 66.3352L651.874 78.619L624.585 66.3352L611.038 78.648Z" fill="url(#paint4_linear_3_54)"/>
</g>
<defs>
<linearGradient id="paint0_linear_3_54" x1="131.191" y1="17.946" x2="208.241" y2="278.205" gradientUnits="userSpaceOnUse">
<stop offset="0.0534" stop-color="#8D8BFF"/>
<stop offset="0.3102" stop-color="#C495FF"/>
<stop offset="0.6029" stop-color="#B15DFF"/>
<stop offset="0.7091" stop-color="#9D49FF"/>
<stop offset="0.996" stop-color="#6C17FF"/>
</linearGradient>
<linearGradient id="paint1_linear_3_54" x1="243.827" y1="253.364" x2="343.264" y2="484.468" gradientUnits="userSpaceOnUse">
<stop offset="0.0534" stop-color="#8D8BFF"/>
<stop offset="0.3102" stop-color="#C495FF"/>
<stop offset="0.6029" stop-color="#B15DFF"/>
<stop offset="0.7091" stop-color="#9D49FF"/>
<stop offset="0.996" stop-color="#6C17FF"/>
</linearGradient>
<linearGradient id="paint2_linear_3_54" x1="3.63603" y1="36.1609" x2="217.154" y2="510.412" gradientUnits="userSpaceOnUse">
<stop offset="0.0534" stop-color="#8D8BFF"/>
<stop offset="0.3102" stop-color="#C495FF"/>
<stop offset="0.6029" stop-color="#B15DFF"/>
<stop offset="0.7091" stop-color="#9D49FF"/>
<stop offset="0.996" stop-color="#6C17FF"/>
</linearGradient>
<linearGradient id="paint3_linear_3_54" x1="-104.956" y1="261.821" x2="26.6155" y2="625.325" gradientUnits="userSpaceOnUse">
<stop offset="0.0534" stop-color="#6F35B2"/>
<stop offset="0.3102" stop-color="#6B32AD"/>
<stop offset="0.6029" stop-color="#8E1DF8"/>
<stop offset="0.7091" stop-color="#9D49FF"/>
<stop offset="0.996" stop-color="#6C17FF"/>
</linearGradient>
<linearGradient id="paint4_linear_3_54" x1="318.702" y1="104.287" x2="442.525" y2="-238.029" gradientUnits="userSpaceOnUse">
<stop offset="0.0534" stop-color="#9544F3"/>
<stop offset="0.3102" stop-color="#63309E"/>
<stop offset="0.6029" stop-color="#B15DFF"/>
<stop offset="0.7091" stop-color="#9D49FF"/>
<stop offset="0.996" stop-color="#6C17FF"/>
</linearGradient>
<clipPath id="clip0_3_54">
<rect width="429" height="429" rx="214.5" fill="white"/>
</clipPath>
</defs>
</svg>