<?xml version="1.0" encoding="utf-8"?>
<!-- Generator: Adobe Illustrator 25.3.1, SVG Export Plug-In . SVG Version: 6.00 Build 0)  -->
<svg version="1.1" id="Слой_1" xmlns="http://www.w3.org/2000/svg" xmlns:xlink="http://www.w3.org/1999/xlink" x="0px" y="0px"
	 viewBox="0 0 48 40" style="enable-background:new 0 0 48 40;" xml:space="preserve">
<style type="text/css">
	.st0{fill:#FFFFFF;}
	.st1{fill:#009A61;}
	.st2{fill:#00384F;}
</style>
<path class="st0" d="M45.9,40c-0.6,0-1.1-0.2-1.5-0.6c-0.4-0.4-0.6-0.9-0.6-1.5s0.2-1.1,0.6-1.5c0.4-0.4,0.9-0.6,1.5-0.6
	c0.6,0,1.1,0.2,1.5,0.6c0.4,0.4,0.6,0.9,0.6,1.5c0,0.6-0.2,1.1-0.6,1.5C47,39.8,46.5,40,45.9,40z M47.2,39.2
	c0.3-0.4,0.5-0.8,0.5-1.3c0-0.5-0.2-0.9-0.5-1.3c-0.3-0.4-0.8-0.5-1.3-0.5c-0.5,0-0.9,0.2-1.3,0.5c-0.3,0.3-0.5,0.8-0.5,1.3
	c0,0.5,0.2,0.9,0.5,1.3c0.3,0.3,0.8,0.5,1.3,0.5C46.4,39.7,46.8,39.5,47.2,39.2z M47,38.2c-0.2,0.5-0.5,0.8-1,0.8
	c-0.3,0-0.6-0.1-0.8-0.3c-0.2-0.2-0.3-0.5-0.3-0.8c0-0.3,0.1-0.6,0.3-0.8c0.2-0.2,0.5-0.3,0.8-0.3c0.2,0,0.5,0.1,0.6,0.2
	c0.2,0.1,0.3,0.3,0.4,0.6l-0.4,0.2c-0.1-0.4-0.3-0.6-0.6-0.6c-0.4,0-0.6,0.3-0.6,0.8c0,0.4,0.3,0.7,0.6,0.7c0.3,0,0.5-0.2,0.6-0.6
	L47,38.2z"/>
<path class="st1" d="M41.7,24.1h-13l2.3,5.2h6.8L41.7,24.1z M47.9,14.3H24.4l2.3,5.2H44L47.9,14.3z"/>
<path class="st2" d="M24.3,0L6.1,40h7l11.3-25.8L35.7,40h7L24.3,0z"/>
<path class="st1" d="M0,14.3l3.8,5.2h22.9l-2.3-5.2H0z M7,24.1l3.8,5.2H31l-2.3-5.2H7z"/>
</svg>
