<?xml version="1.0" encoding="UTF-8"?>
<!-- Generator: Adobe Illustrator 21.1.0, SVG Export Plug-In . SVG Version: 6.00 Build 0)  -->
<svg version="1.1" id="svg7952" xmlns="http://www.w3.org/2000/svg" xmlns:xlink="http://www.w3.org/1999/xlink" x="0px" y="0px" viewBox="0 0 170.3 59.9" style="enable-background:new 0 0 170.3 59.9;" xml:space="preserve">
<style type="text/css">
	.st0{fill:#FF5050;}
</style>
<g id="layer1" transform="translate(-226.39026,-143.82951)">
	<g id="g124" transform="matrix(2.864053,0,0,-2.864053,-363.82891,1555.0879)">
		<g>
			<g id="g126">
				<g id="g132" transform="translate(214.4713,492.7487)">
					<path id="path134" class="st0" d="M-1.7,0c1.4,0,1.9-1,2.2-2c0.2-0.4,3.9-10.6,4-10.9c0-0.1,0-0.2-0.1-0.3       c-0.1,0-2.1-0.8-2.2-0.8c-0.1,0-0.2,0-0.3,0.1c0,0.1-0.8,2.3-0.9,2.6h-5.5c-0.1-0.2-0.9-2.5-0.9-2.6c0-0.1-0.2-0.2-0.3-0.1       c-0.1,0-2,0.8-2.2,0.8c-0.1,0-0.2,0.2-0.1,0.3c0.1,0.4,3.8,10.3,4,10.9C-3.6-1-3.1,0-1.7,0 M-8.2-18.1c-0.1,0-0.2-0.1-0.2-0.2       v-2.4c0-0.1,0.1-0.2,0.2-0.2h13c0.1,0,0.2,0.1,0.2,0.2v2.4c0,0.1-0.1,0.2-0.2,0.2H-8.2 M-1.7-3.3l-1.9-5.6h3.7L-1.7-3.3       L-1.7-3.3z M22.6-12.4c-0.3-0.1-0.5-0.1-0.7-0.1c-0.4,0-0.7,0.2-0.7,0.6c0,0.5,0.3,0.6,0.9,0.6c0.1,0,0.3,0,0.4,0v-0.3       C22.6-12,22.6-12.3,22.6-12.4 M24.2-13c-0.3,0.5-0.4,0.8-0.4,1.4v1.3c0,0.7-0.1,0.9-0.3,1.2c-0.3,0.4-0.7,0.5-1.4,0.5       c-0.5,0-1.1-0.1-1.6-0.2l0.2-0.9c0.3,0,0.7,0.1,1,0.1c0.8,0,0.9-0.1,0.9-0.7v-0.2c-0.2,0-0.4,0.1-0.6,0.1       c-1.2,0-1.9-0.6-1.9-1.6c0-0.9,0.7-1.4,1.5-1.4c0.3,0,0.6,0.1,0.9,0.2c0.2,0.1,0.2,0.1,0.4,0.2c0.1-0.2,0.4-0.4,0.5-0.4       L24.2-13z M36.4-12.4c-0.3-0.1-0.5-0.1-0.7-0.1c-0.4,0-0.7,0.2-0.7,0.6c0,0.5,0.3,0.6,0.9,0.6c0.1,0,0.3,0,0.4,0v-0.3       C36.3-12,36.4-12.3,36.4-12.4 M38-13c-0.3,0.5-0.4,0.8-0.4,1.4v1.3c0,0.7-0.1,0.9-0.3,1.2c-0.2,0.4-0.7,0.5-1.4,0.5       c-0.5,0-1.1-0.1-1.6-0.2l0.2-0.9c0.3,0,0.7,0.1,1,0.1c0.8,0,0.9-0.1,0.9-0.7v-0.2c-0.2,0-0.4,0.1-0.6,0.1       c-1.2,0-1.9-0.6-1.9-1.6c0-0.9,0.7-1.4,1.6-1.4c0.3,0,0.6,0.1,0.9,0.2c0.2,0.1,0.2,0.1,0.4,0.2c0.1-0.2,0.4-0.4,0.5-0.4L38-13z        M47.6-13.4c0,0-0.7,1.4-0.8,1.8c-0.2,0.4-0.4,0.6-0.7,0.7v0c0.3,0,0.5,0.2,0.7,0.7c0.2,0.5,0.3,0.6,0.4,0.7       c0.1,0.1,0.3,0.1,0.3,0.1l0.1,0.9c-0.2,0-0.4,0-0.6,0c-0.3,0-0.5-0.1-0.7-0.3c-0.1-0.1-0.2-0.3-0.3-0.5       c-0.1-0.2-0.2-0.4-0.3-0.7c-0.1-0.2-0.2-0.4-0.5-0.4h-0.2v3.8h-1.2v-6.7h1.2v1.9l0.2,0c0.4,0,0.4-0.1,0.6-0.5       c0.2-0.4,0.6-1.5,0.6-1.5H47.6L47.6-13.4z M12.8-13.4h1.4L12-6.8c-0.2,0.1-0.5,0.1-0.8,0.1c-0.3,0-0.4,0-0.7-0.1l-2.3-6.6h1.4       c0,0,0.2,0.6,0.4,1.3h2.4C12.6-12.8,12.8-13.4,12.8-13.4 M10.4-11c0,0,0.4,1.3,0.5,1.5C11-9,11.2-8.1,11.2-8.1h0       c0,0,0.2-0.9,0.4-1.4c0.1-0.2,0.4-1.5,0.4-1.5H10.4z M26.3-10.3c-0.4,0-0.8-0.4-0.8-0.8c0-0.4,0.4-0.8,0.8-0.8       c0.4,0,0.8,0.4,0.8,0.8C27.1-10.6,26.7-10.3,26.3-10.3 M15.9-6.7h-1.2v-6.7h1.2V-6.7z M40.5-9.7c0.7,0,0.8-0.2,0.8-0.7v-3h1.2       v3.1c0,0.7-0.1,0.9-0.3,1.2c-0.3,0.4-0.7,0.5-1.6,0.5c-0.8,0-1.4-0.1-2-0.3v-4.5h1.2v3.7C40.2-9.7,40.3-9.7,40.5-9.7 M19-6.6       c-0.8,0-1.2-0.2-1.4-0.5c-0.2-0.3-0.3-0.5-0.3-1.2v-0.6h-0.6v-1h0.6v-3.5h1.2l0,3.5h1.2v1h-1.2l0,0.5c0,0.6,0.1,0.7,0.9,0.7       c0.1,0,0.2,0,0.3,0l0.2,1C19.6-6.6,19.3-6.6,19-6.6 M28.8-6.7c0.4,0,1.4,0.1,2,0.1c0.1,0,0.2,0,0.3,0c1.2,0,1.8-0.8,1.8-1.8       c0-0.7-0.3-1.1-1-1.4c0.9-0.2,1.3-0.9,1.3-1.7c0-0.6-0.2-1.1-0.5-1.4c-0.4-0.4-1-0.6-1.8-0.6c-0.7,0-1.6,0-2.1,0L28.8-6.7z        M30.8-7.8c-0.2,0-0.5,0-0.7,0v-1.6h0.7c0.3,0,0.5,0.1,0.7,0.2c0.1,0.1,0.2,0.3,0.2,0.6C31.7-8.1,31.4-7.8,30.8-7.8L30.8-7.8z        M30.8-12.4L30.8-12.4c0.7,0,1.1,0.3,1.1,1c0,0.2-0.1,0.5-0.3,0.6c-0.2,0.2-0.5,0.3-0.8,0.3h-0.8v-2       C30.3-12.4,30.5-12.4,30.8-12.4"/>
				</g>
			</g>
		</g>
	</g>
</g>
</svg>