<?xml version="1.0" encoding="utf-8"?>
<!-- Generator: Adobe Illustrator 25.3.1, SVG Export Plug-In . SVG Version: 6.00 Build 0)  -->
<svg version="1.1" id="Слой_1" xmlns="http://www.w3.org/2000/svg" xmlns:xlink="http://www.w3.org/1999/xlink" x="0px" y="0px"
	 viewBox="0 0 90 47" enable-background="new 0 0 90 47" xml:space="preserve">
<g>
	<defs>
		<rect id="SVGID_1_" width="35" height="22"/>
	</defs>
	<clipPath id="SVGID_2_">
		<use xlink:href="#SVGID_1_"  overflow="visible"/>
	</clipPath>
	<g clip-path="url(#SVGID_2_)">
		<path fill="#E30D17" d="M13.4,11c0-3.5,1.6-6.6,4.1-8.6C15.6,0.9,13.3,0,10.8,0C4.8,0,0,4.9,0,11c0,6.1,4.8,11,10.8,11
			c2.5,0,4.9-0.9,6.7-2.4C15,17.6,13.4,14.5,13.4,11z"/>
		<path fill="#EB610A" d="M13.4,11c0,3.5,1.6,6.6,4.1,8.6c2.5-2,4.1-5.1,4.1-8.6c0-3.5-1.6-6.6-4.1-8.6C15,4.4,13.4,7.5,13.4,11z"/>
		<path fill="#F69F00" d="M34.2,16.9v-0.3h-0.1v-0.1h0.3v0.1h-0.1L34.2,16.9L34.2,16.9z M34.9,16.9v-0.3V16.9l-0.2,0l-0.1-0.2v0.3
			h-0.1v-0.4h0.1l0.1,0.3l0.1-0.3H35L34.9,16.9L34.9,16.9z"/>
		<path fill="#F69F00" d="M24.2,0c-2.5,0-4.9,0.9-6.7,2.4c2.5,2,4.1,5.1,4.1,8.6c0,3.5-1.6,6.6-4.1,8.6c1.8,1.5,4.2,2.4,6.7,2.4
			c6,0,10.8-4.9,10.8-11C35,4.9,30.1,0,24.2,0z"/>
	</g>
</g>
<g display="none">
	<defs>
		<rect id="SVGID_3_" x="41" y="4" width="49" height="14"/>
	</defs>
	<clipPath id="SVGID_4_" display="inline">
		<use xlink:href="#SVGID_3_"  overflow="visible"/>
	</clipPath>
	<g display="inline" clip-path="url(#SVGID_4_)">
		<path fill="#FFFFFF" d="M62.2,17.8h-4l2.5-13.5h4L62.2,17.8z"/>
		<path fill="#FFFFFF" d="M54.9,4.3l-3.8,9.3l-0.5-2l-1.4-6.1c0,0-0.2-1.2-1.9-1.2h-6.3L41,4.5c0,0,1.9,0.4,4.2,1.6l3.5,11.8h4.1
			l6.4-13.5H54.9z"/>
		<path fill="#FFFFFF" d="M86.3,17.8H90L86.8,4.3h-3.2c-1.5,0-1.8,1-1.8,1l-5.9,12.5h4.1l0.8-2h5.1L86.3,17.8z M81.9,13L84,7.9
			l1.2,5.1H81.9z"/>
		<path fill="#FFFFFF" d="M76.1,7.5l0.6-2.9c0,0-1.8-0.6-3.6-0.6c-2,0-6.7,0.8-6.7,4.5c0,3.5,5.5,3.5,5.5,5.4s-5,1.5-6.6,0.4l-0.6,3
			c0,0,1.8,0.8,4.5,0.8c2.7,0,6.9-1.2,6.9-4.6c0-3.5-5.6-3.8-5.6-5.4C70.5,6.5,74.4,6.7,76.1,7.5z"/>
		<path fill="#F7A823" d="M50.6,11.5l-1.4-6.1c0,0-0.2-1.2-1.9-1.2h-6.3L41,4.5c0,0,3,0.5,5.9,2.6C49.7,9.1,50.6,11.5,50.6,11.5z"/>
	</g>
</g>
<path fill-rule="evenodd" clip-rule="evenodd" fill="#67C09E" d="M21.7,30.1c0.5,0,1.9-0.1,2.5,2c0.4,1.4,1.1,3.8,1.9,7h0.4
	c1-3.4,1.6-5.8,2-7c0.6-2.1,2.1-2,2.7-2h4.7v15.2h-4.8v-9h-0.3l-2.7,9h-3.6l-2.7-9h-0.3v9h-4.8V30.1L21.7,30.1z M42.8,30.1v9h0.4
	l3.3-7.4c0.6-1.5,2-1.6,2-1.6h4.6v15.2h-4.9v-9h-0.4l-3.2,7.4c-0.6,1.5-2,1.6-2,1.6h-4.6V30.1H42.8z M70,37.3
	c-0.7,2-2.8,3.4-5.2,3.4h-5.1v4.5H55v-8H70z"/>
<linearGradient id="SVGID_5_" gradientUnits="userSpaceOnUse" x1="70.4073" y1="14.7985" x2="54.75" y2="14.7985" gradientTransform="matrix(1 0 0 -1 0 48)">
	<stop  offset="0" style="stop-color:#1F5CD7"/>
	<stop  offset="1" style="stop-color:#02AEFF"/>
</linearGradient>
<path fill-rule="evenodd" clip-rule="evenodd" fill="url(#SVGID_5_)" d="M65,30.1H54.8c0.2,3.4,3.1,6.3,6,6.3h9.6
	C70.9,33.5,69,30.1,65,30.1z"/>
<g id="layer1" transform="translate(-333.70157,-536.42431)">
	<g id="g10267" transform="matrix(4.9846856,0,0,-4.9846856,-1470.1185,1039.6264)">
		<g>
			<defs>
				<path id="SVGID_6_" d="M375,98.8c0-0.6,0.4-0.9,0.7-1.1c0.3-0.2,0.4-0.3,0.4-0.5c0-0.3-0.2-0.4-0.5-0.4c-0.4,0-0.6,0.1-0.8,0.3
					l-0.1-0.9c0.2-0.1,0.5-0.2,0.9-0.2c0.8,0,1.3,0.6,1.3,1.4c0,1.1-1.1,1.2-1.1,1.7c0,0.1,0.1,0.3,0.3,0.3c0.1,0,0.4,0,0.8-0.2
					l0.1,0.9c-0.2,0.1-0.4,0.2-0.7,0.2C375.6,100.2,375,99.6,375,98.8 M378.3,100.1c-0.1,0-0.3-0.1-0.3-0.3l-1.2-3.9h0.8l0.2,0.6h1
					l0.1-0.6h0.7l-0.6,4.2H378.3 M378.4,99l0.2-1.6H378L378.4,99 M374.1,100.1l-0.6-4.2h0.8l0.6,4.2H374.1 M372.9,100.1l-0.8-2.8
					l-0.3,2.4c0,0.3-0.2,0.4-0.4,0.4h-1.3l0-0.1c0.3-0.1,0.6-0.2,0.8-0.4c0.1-0.1,0.1-0.2,0.2-0.4l0.6-3.3h0.8l1.2,4.2H372.9"/>
			</defs>
			<clipPath id="SVGID_7_">
				<use xlink:href="#SVGID_6_"  overflow="visible"/>
			</clipPath>
			<g id="g10269" clip-path="url(#SVGID_7_)">
				<g id="g10275" transform="translate(351.611,96.896)">
					
						<linearGradient id="path10283_1_" gradientUnits="userSpaceOnUse" x1="-9.3777" y1="-56.8673" x2="-9.2704" y2="-56.8673" gradientTransform="matrix(419.708 154.5691 154.5691 -419.708 12744.707 -22418.6191)">
						<stop  offset="0" style="stop-color:#222357"/>
						<stop  offset="1" style="stop-color:#254AA5"/>
					</linearGradient>
					<path id="path10283" fill="url(#path10283_1_)" d="M17.5,2.8l9.4,4.8L29-0.5l-9.4-4.8"/>
				</g>
			</g>
		</g>
	</g>
</g>
</svg>
