<svg width="338" height="98" viewBox="0 0 338 98" fill="none" xmlns="http://www.w3.org/2000/svg">
<path d="M159.1 55.7999H123.8C124.3 58.8999 125.7 61.4 127.9 63.2C130.1 65 132.9 66 136.4 66C140.5 66 144 64.6 147 61.7L156.2 66C153.9 69.3 151.1 71.7 147.9 73.3C144.7 74.9 140.9 75.6999 136.4 75.6999C129.5 75.6999 124 73.4999 119.6 69.1999C115.3 64.8999 113.1 59.5 113.1 52.9C113.1 46.2 115.3 40.6999 119.6 36.2999C123.9 31.8999 129.3 29.7 135.8 29.7C142.7 29.7 148.3 31.8999 152.6 36.2999C156.9 40.6999 159.1 46.4999 159.1 53.7999V55.7999ZM148.2 47.2C147.5 44.8 146 42.7999 143.9 41.2999C141.8 39.7999 139.3 39 136.5 39C133.4 39 130.8 39.8999 128.4 41.5999C127 42.6999 125.6 44.5999 124.4 47.2999H148.2V47.2Z" fill="#17212B"/>
<path d="M168 30.7999H179V35.2999C181.5 33.1999 183.7 31.7 185.8 30.9C187.8 30.1 189.9 29.7 192 29.7C196.3 29.7 200 31.2 203 34.2C205.5 36.8 206.8 40.5999 206.8 45.5999V74.5H196V55.4C196 50.2 195.8 46.7 195.3 45C194.8 43.3 194 41.9999 192.9 41.0999C191.7 40.1999 190.3 39.7999 188.6 39.7999C186.4 39.7999 184.5 40.5 182.9 42C181.3 43.5 180.2 45.5 179.6 48.2C179.3 49.6 179.1 52.4999 179.1 57.0999V74.5999H168.1V30.7999H168Z" fill="#17212B"/>
<path d="M238 29.7C242.1 29.7 246 30.6999 249.6 32.7999C253.2 34.8999 256.1 37.7 258.1 41.2C260.1 44.7 261.2 48.6 261.2 52.7C261.2 56.8 260.2 60.7 258.1 64.3C256.1 67.9 253.3 70.6999 249.7 72.6999C246.1 74.6999 242.3 75.6999 238 75.6999C231.7 75.6999 226.4 73.5 221.9 69C217.5 64.5 215.2 59.1 215.2 52.7C215.2 45.9 217.7 40.1999 222.7 35.5999C227.2 31.5999 232.3 29.7 238 29.7ZM238.1 40C234.7 40 231.9 41.1999 229.6 43.5999C227.3 45.9999 226.2 49 226.2 52.7C226.2 56.5 227.3 59.6 229.6 61.9C231.8 64.3 234.7 65.4 238.1 65.4C241.5 65.4 244.4 64.1999 246.7 61.7999C249 59.3999 250.1 56.2999 250.1 52.5999C250.1 48.7999 249 45.8 246.7 43.5C244.5 41.2 241.6 40 238.1 40Z" fill="#17212B"/>
<path d="M271.4 14.7H282.4V30.7999H288.9V40.2H282.4V74.5H271.4V40.2H265.8V30.7999H271.4V14.7Z" fill="#17212B"/>
<path d="M300.8 63.1C302.5 63.1 304 63.7 305.3 64.9C306.5 66.1 307.1 67.6 307.1 69.3C307.1 71 306.5 72.5 305.3 73.8C304.1 75.1 302.6 75.6 300.8 75.6C299.1 75.6 297.6 75 296.3 73.8C295.1 72.6 294.5 71.1 294.5 69.3C294.5 67.5 295.1 66.1 296.3 64.9C297.6 63.7 299 63.1 300.8 63.1Z" fill="#FBCD02"/>
<path d="M37.1 90V63.7H12.9L45.3 8.19995V34.5999H69L37.1 90Z" fill="#FBCD02"/>
</svg>
