<svg width="48" height="48" viewBox="0 0 48 48" fill="none" xmlns="http://www.w3.org/2000/svg">
<path d="M0 24C0 10.7452 10.7452 0 24 0C37.2548 0 48 10.7452 48 24C48 37.2548 37.2548 48 24 48C10.7452 48 0 37.2548 0 24Z" fill="black"/>
<path d="M0 24C0 10.7452 10.7452 0 24 0C37.2548 0 48 10.7452 48 24C48 37.2548 37.2548 48 24 48C10.7452 48 0 37.2548 0 24Z" fill="url(#paint0_linear_0_3)"/>
<path d="M17.9259 20.6479C18.0209 20.5641 18.0684 20.5223 18.0758 20.4813C18.0823 20.4456 18.0724 20.409 18.0487 20.3815C18.0216 20.35 17.9604 20.3381 17.8382 20.3142C16.4125 20.0368 14.9364 19.874 13.6417 19.8605C13.5796 19.8598 13.5485 19.8595 13.5244 19.8479C13.503 19.8376 13.4854 19.8215 13.4733 19.8011C13.4597 19.778 13.4567 19.7474 13.4507 19.6862L12.9706 14.7496C12.9647 14.6884 12.9618 14.6577 12.9709 14.6323C12.9789 14.61 12.9935 14.5904 13.0127 14.5764C13.0345 14.5603 13.0646 14.5545 13.125 14.5428C20.3574 13.1436 27.556 13.0718 34.8968 14.5456C34.9569 14.5576 34.9869 14.5637 35.0085 14.5797C35.0275 14.5939 35.042 14.6135 35.05 14.6358C35.059 14.6612 35.0559 14.6917 35.0498 14.7527L34.5517 19.6868C34.5455 19.7478 34.5425 19.7784 34.5287 19.8014C34.5166 19.8217 34.4991 19.8377 34.4778 19.8479C34.4537 19.8595 34.4227 19.8598 34.3608 19.8605C33.0659 19.8739 31.5896 20.0367 30.1637 20.3142C30.0414 20.3381 29.9802 20.35 29.9531 20.3815C29.9295 20.409 29.9195 20.4456 29.926 20.4813C29.9334 20.5223 29.981 20.5641 30.076 20.6479C33.5117 23.6767 35.9416 27.6673 35.9961 33.2735C35.9969 33.3408 35.9971 33.3745 35.9841 33.4004C35.9728 33.423 35.9542 33.4419 35.9317 33.4534C35.9058 33.4666 35.8722 33.4666 35.8051 33.4666H30.8558C30.7885 33.4666 30.7549 33.4666 30.7294 33.4538C30.7068 33.4423 30.6888 33.4246 30.6771 33.4022C30.6639 33.3768 30.6634 33.3424 30.6625 33.2735C30.5982 28.5941 28.1951 25.4746 24.1056 22.8042C24.0678 22.7794 24.0489 22.767 24.0284 22.7622C24.0104 22.758 23.9913 22.758 23.9734 22.7622C23.9529 22.767 23.934 22.7794 23.8962 22.8042C19.8067 25.4746 17.4036 28.5941 17.3394 33.2735C17.3384 33.3424 17.338 33.3768 17.3248 33.4022C17.313 33.4246 17.295 33.4423 17.2724 33.4538C17.247 33.4666 17.2133 33.4666 17.1461 33.4666H12.1967C12.1295 33.4666 12.096 33.4666 12.0702 33.4534C12.0476 33.4419 12.029 33.423 12.0176 33.4004C12.0047 33.3745 12.005 33.3408 12.0056 33.2735C12.0602 27.6673 14.4902 23.6767 17.9259 20.6479Z" fill="white"/>
<defs>
<linearGradient id="paint0_linear_0_3" x1="24" y1="0" x2="24" y2="48" gradientUnits="userSpaceOnUse">
<stop stop-color="#EF3F51"/>
<stop offset="1" stop-color="#FC6743"/>
</linearGradient>
</defs>
</svg>
