<?xml version="1.0" encoding="UTF-8"?>
<svg width="49px" height="41px" viewBox="0 0 49 41" version="1.1" xmlns="http://www.w3.org/2000/svg" xmlns:xlink="http://www.w3.org/1999/xlink">
    <title>logo-new</title>
    <g id="Page-1" stroke="none" stroke-width="1" fill="none" fill-rule="evenodd">
        <g id="logo-new" fill-rule="nonzero">
            <polygon id="Path" fill="#00AF7E" points="43.8047 22.6594 40.5864 31.2912 36.8182 31.2912 33.5233 22.6594"></polygon>
            <polygon id="Path" fill="#00AF7E" points="43.8045 9.71167 40.5862 18.3434 25.1223 18.3434 21.9004 9.71167"></polygon>
            <polygon id="Path" fill="#FFFFFF" points="41.7211 39.9228 33.1754 39.9191 25.1224 18.3434 21.9004 9.71165 18.6821 18.3434 10.6255 39.9228 2.07617 39.9228 10.308 18.3434 13.6029 9.71165 17.3065 0 26.4944 0 30.2016 9.71165 33.4929 18.3434"></polygon>
            <polygon id="Path" fill="#00AF7E" points="21.9005 9.71167 18.6822 18.3434 3.22195 18.3434 0 9.71167"></polygon>
            <polygon id="Path" fill="#00AF7E" points="26.7316 22.6594 29.9535 31.2912 3.22195 31.2912 0 22.6594"></polygon>
            <path d="M45.9060879,40.01 C45.3114414,40.01 44.8146852,39.8066054 44.4055981,39.4001983 C44.0038131,38.9882694 43.8,38.4880655 43.8,37.8948108 C43.8,37.3015652 44.0019864,36.8017342 44.4055981,36.395318 C44.8146852,35.9830207 45.3114414,35.78 45.9060879,35.78 C46.5007253,35.78 46.9971086,35.9830207 47.400723,36.395318 C47.8098137,36.7998876 48.0118074,37.3015652 48.0118074,37.8948108 C48.0118074,38.4880655 47.8098137,38.9882694 47.400723,39.4001983 C46.9971086,39.8066054 46.5007253,40.01 45.9060879,40.01 Z M47.1717028,39.1857693 C47.515415,38.8341611 47.6830684,38.4056761 47.6830684,37.8948108 C47.6830684,37.3839455 47.5139505,36.9554696 47.1717028,36.6075365 C46.8294552,36.2596024 46.4079565,36.0801205 45.9060879,36.0801205 C45.4042193,36.0801205 44.9838031,36.2559246 44.6401,36.6075365 C44.2963878,36.9591447 44.1287335,37.3821079 44.1287335,37.8948108 C44.1287335,38.4075227 44.2978487,38.8341611 44.6401,39.1857693 C44.8047697,39.3548873 45.0019785,39.4884096 45.219655,39.5781401 C45.4373315,39.6678797 45.6709092,39.7119535 45.9060879,39.707669 C46.4079565,39.707669 46.8279997,39.5318649 47.1717028,39.1857693 Z M46.1413121,37.9746258 L45.4980888,37.9746258 L45.4980888,38.926848 L45.1375749,38.926848 L45.1375749,36.7568599 L45.985348,36.7568599 C46.5247135,36.7568599 46.7943962,36.9433345 46.7943962,37.3162746 C46.7943962,37.5913881 46.6612014,37.7648635 46.3948026,37.8367006 C46.6219943,37.8889343 46.735713,38.0393584 46.7359586,38.2879912 L46.7359586,38.4645231 C46.7359586,38.5432374 46.747275,38.5954619 46.7699168,38.6215787 C46.7925678,38.6476865 46.846266,38.6609223 46.9310024,38.6609223 L46.9697182,38.6609223 L46.9697182,38.9261112 L46.7454556,38.9261112 C46.498533,38.9261112 46.375199,38.8214074 46.3754447,38.6120089 L46.3754447,38.200453 C46.3754447,38.0501472 46.2973944,37.9748714 46.1413121,37.9746258 Z M45.975478,37.0422709 L45.4980888,37.0422709 L45.4980888,37.7296772 L46.0047059,37.7296772 C46.2779182,37.7296772 46.4144061,37.608672 46.4141608,37.3666616 C46.4141608,37.1506407 46.26793,37.0425166 45.975478,37.0422709 Z" id="Shape" fill="#FFFFFF"></path>
        </g>
    </g>
</svg>