<?xml version="1.0" encoding="utf-8"?>
<!-- Generator: Adobe Illustrator 16.0.0, SVG Export Plug-In . SVG Version: 6.00 Build 0)  -->
<!DOCTYPE svg PUBLIC "-//W3C//DTD SVG 1.1//EN" "http://www.w3.org/Graphics/SVG/1.1/DTD/svg11.dtd">
<svg version="1.1" id="Layer_1" xmlns="http://www.w3.org/2000/svg" xmlns:xlink="http://www.w3.org/1999/xlink" x="0px" y="0px"
	   viewBox="0 0 278 52.667" enable-background="new 0 0 278 52.667" xml:space="preserve">
<g>
	<g>
		<path d="M5.395,48.877V3.646H20.05c5.554,0,9.173,0.227,10.86,0.679c2.592,0.679,4.762,2.155,6.51,4.428
			c1.748,2.273,2.622,5.209,2.622,8.809c0,2.777-0.504,5.111-1.512,7.003c-1.008,1.893-2.288,3.378-3.841,4.458
			c-1.553,1.08-3.131,1.795-4.736,2.144c-2.18,0.432-5.337,0.648-9.472,0.648h-5.955v17.063H5.395z M14.527,11.298v12.835h4.999
			c3.599,0,6.006-0.236,7.22-0.71c1.213-0.473,2.165-1.213,2.854-2.221c0.688-1.008,1.033-2.18,1.033-3.518
			c0-1.645-0.483-3.002-1.45-4.072c-0.967-1.069-2.19-1.738-3.671-2.005c-1.09-0.206-3.281-0.309-6.572-0.309H14.527z"/>
		<path d="M83.653,48.877h-9.935l-3.949-10.275h-18.08l-3.733,10.275h-9.688L55.885,3.646h9.657L83.653,48.877z M66.838,30.982
			l-6.232-16.784l-6.109,16.784H66.838z"/>
		<path d="M94.625,48.877V29.84L78.057,3.646h10.706l10.645,17.895l10.429-17.895h10.521l-16.63,26.256v18.975H94.625z"/>
	</g>
	<g>
		<path fill="#64B3DF" d="M124.827,48.877V3.646h33.538v7.652h-24.405v10.027h22.708v7.621h-22.708v12.311h25.269v7.621H124.827z"/>
		<path fill="#64B3DF" d="M166.972,48.877V3.646h33.538v7.652h-24.405v10.027h22.708v7.621h-22.708v12.311h25.269v7.621H166.972z"/>
		<path fill="#64B3DF" d="M209.148,48.877V3.646h19.222c4.833,0,8.346,0.406,10.536,1.219c2.19,0.813,3.944,2.258,5.261,4.335
			c1.316,2.078,1.975,4.454,1.975,7.127c0,3.394-0.998,6.197-2.993,8.408c-1.995,2.211-4.978,3.605-8.947,4.181
			c1.975,1.152,3.604,2.417,4.891,3.795c1.285,1.378,3.019,3.826,5.198,7.343l5.523,8.824h-10.923l-6.603-9.842
			c-2.345-3.518-3.949-5.734-4.813-6.65c-0.864-0.915-1.779-1.542-2.746-1.882s-2.499-0.509-4.598-0.509h-1.851v18.883H209.148z
			 M218.281,22.775h6.757c4.381,0,7.116-0.185,8.207-0.555c1.09-0.37,1.943-1.007,2.561-1.913c0.617-0.905,0.926-2.036,0.926-3.394
			c0-1.522-0.406-2.751-1.219-3.687s-1.959-1.527-3.44-1.774c-0.74-0.103-2.962-0.154-6.664-0.154h-7.127V22.775z"/>
	</g>
	<path d="M275.658,36.243c0,3.489-1.229,6.466-3.686,8.933c-2.458,2.468-5.427,3.703-8.913,3.703s-6.449-1.235-8.896-3.703
		c-2.435-2.458-3.651-5.436-3.651-8.933c0-3.464,1.23-6.42,3.685-8.877c2.448-2.445,5.4-3.668,8.862-3.668
		c3.486,0,6.455,1.223,8.913,3.668C274.43,29.811,275.658,32.773,275.658,36.243L275.658,36.243z M263.06,25.411
		c-2.982,0-5.529,1.063-7.646,3.188c-2.101,2.116-3.153,4.667-3.153,7.663c0,3.017,1.046,5.588,3.137,7.715
		c2.105,2.124,4.655,3.187,7.662,3.187c3.006,0,5.557-1.063,7.661-3.187c2.105-2.127,3.154-4.698,3.154-7.715
		c0-2.996-1.049-5.547-3.154-7.663C268.61,26.473,266.052,25.411,263.06,25.411L263.06,25.411z M262.818,29.302
		c1.716,0,2.974,0.165,3.772,0.496c1.43,0.596,2.143,1.762,2.143,3.503c0,1.233-0.45,2.146-1.348,2.728
		c-0.476,0.309-1.141,0.528-1.999,0.665c1.084,0.172,1.872,0.625,2.373,1.359c0.5,0.727,0.751,1.438,0.751,2.138v1.008
		c0,0.322,0.009,0.665,0.033,1.029c0.024,0.362,0.066,0.604,0.12,0.72l0.086,0.171h-2.279c-0.014-0.048-0.021-0.093-0.035-0.137
		c-0.014-0.048-0.02-0.097-0.034-0.158l-0.051-0.442v-1.094c0-1.593-0.436-2.646-1.304-3.159c-0.513-0.295-1.416-0.447-2.708-0.447
		h-1.919v5.438h-2.434V29.302H262.818z M266.368,33.5c0-1-0.309-1.681-0.919-2.021c-0.614-0.343-1.599-0.515-2.948-0.515h-2.081
		v5.003h2.2c1.032,0,1.807-0.103,2.321-0.309C265.892,35.283,266.368,34.562,266.368,33.5L266.368,33.5z"/>
	<text transform="matrix(1 0 0 1 276.0166 48.8774)" font-family="'Helvetica'" font-size="38.6146"> </text>
</g>
</svg>
