<?xml version="1.0" encoding="UTF-8"?>
<!-- Generator: Adobe Illustrator 21.1.0, SVG Export Plug-In . SVG Version: 6.00 Build 0)  -->
<svg version="1.1" id="Layer_1" xmlns="http://www.w3.org/2000/svg" xmlns:xlink="http://www.w3.org/1999/xlink" x="0px" y="0px" viewBox="0 0 600.7 183.8" style="enable-background:new 0 0 600.7 183.8;" xml:space="preserve">
<style type="text/css">
	.st0{fill:#FFFFFF;}
	.st1{fill:#FD4800;}
</style>
<g>
	<polygon class="st0" points="0,61 61,0 61,123 122.3,123 61.5,183.8 0,183.8  "/>
	<polygon class="st1" points="183.5,122.8 122.5,183.8 122.5,60.8 61.2,60.8 122,0 183.5,0  "/>
	<path class="st0" d="M276.2,58.4c0,31.6,0,62.7,0,94.1c-10.7,0-21.1,0-31.8,0c0-40.7,0-81.3,0-122.2c37.5,0,74.9,0,112.6,0   c0,40.7,0,81.2,0,122.2c-10.4,0-20.7,0-31.6,0c0-31.4,0-62.6,0-94.1C308.8,58.4,292.8,58.4,276.2,58.4z"/>
	<path class="st0" d="M466.4,110.7c6.4,6.5,12.7,13,19.3,19.7c-12.2,19.8-42,30.3-68.4,23.4c-26.8-7-45.9-32-46.9-61.3   c-0.9-28.3,16.6-53.8,42.8-62.4c25.7-8.4,56.6,0.4,70.1,19.8c-6.4,6.3-12.8,12.6-19.5,19.2c-8.4-9-19-14.2-31.9-12.9   c-8.2,0.8-15.6,4.2-21,11c-11.9,15.1-10.1,40.5,3.5,51.8C426.3,128.9,450.1,132.4,466.4,110.7z"/>
	<path class="st0" d="M600.6,112.2c-1-17.1-9-28.6-25.6-33.2c-7.4-2.1-15.2-2.6-22.9-3.1c-7.6-0.5-15.4-0.1-22.9-0.1   c0-6.4,0-11.9,0-18c20.3,0,40.3,0,60.2,0c0-9.5,0-18.5,0-27.6c-31,0-61.7,0-92.8,0c0,41.1,0,81.7,0,122.6c22,0,43.7,0.3,65.3-0.1   C584.2,152.3,602.1,138.5,600.6,112.2z M568.1,115.9c-0.5,6-5.2,10.4-12.2,10.7c-8.8,0.3-17.6,0.1-27,0.1c0-8.2,0-15.7,0-23.5   c10.1,0,20.2-0.6,30.1,0.2C565.4,103.8,568.7,109.4,568.1,115.9z"/>
</g>
</svg>