<svg xmlns="http://www.w3.org/2000/svg" viewBox="0 -25 330.01457 126.42615"><path d="M343.219 72.5422v-49h7.899v3.6c1.101-1.8 3.2-3 4.9-3.6 1.7-.6 3.4-.8 5.2-.8 4.399 0 9 1.5 12.8 5.4 3.5 3.6 5.3 8.1 5.3 13.3 0 2.4-.5 4.8-1.399 7-.9 2.301-2.2 4.301-3.801 6-1.699 1.801-3.699 3.201-5.8 4.1-2.2.9-4.2 1.4-6.8 1.4-1.9 0-3.8-.299-5.5-.9-1.7-.6-4.1-1.898-5-3.398v17h-7.8v-.102zm17.7-42.899c-2.9 0-5.4.9-7.4 3-2.1 2.2-2.9 5.3-2.9 8.5 0 3.299.801 6.6 2.801 8.799 2.1 2.201 4.6 3 7.6 3s5.5-1.199 7.3-3.1c2.101-2.199 3.101-5.1 3.101-8.3 0-3.5-1-6.5-3.101-8.7-1.801-2-4.401-3.199-7.401-3.199zm63.9-6.101h8.3l10.8 25.201 10.1-25.201h8.3l-20.7 49h-8.2l6.6-15.5zm-12.6 35.701v-3.701c-.9 1.5-3.3 2.9-5 3.4-1.8.6-3.601.9-5.5.9-2.601 0-4.601-.5-6.8-1.4-2.101-.9-4.101-2.299-5.801-4.1-1.6-1.699-2.899-3.699-3.8-6-.899-2.301-1.399-4.6-1.399-7 0-5.2 1.8-9.7 5.3-13.3 3.8-3.9 8.5-5.4 12.8-5.4 1.8 0 3.5.3 5.2.8 1.7.6 3.8 1.8 4.899 3.6v-3.6h7.9v35.701h-7.8v.1zm-17.3-26.501c-2.101 2.2-3.101 5.3-3.101 8.7 0 3.201 1 6.099 3.101 8.3 1.899 1.9 4.3 3.1 7.3 3.1s5.5-.801 7.6-3c2.101-2.199 2.8-5.4 2.8-8.8 0-3.1-.8-6.3-2.899-8.5-2.101-2.1-4.601-3-7.4-3-3.101.101-5.601 1.3-7.401 3.2zm-95.6-4.2v29.9h-10.8l-7.4-24.6h-.2l.4 24.6h-7.4v-29.9h11.2l7 23.701h.1l-.4-23.701zm-155.4 30.201l5.6-30.201h13.4l5.6 30.201h-8.1l-4.1-27.501h-.1l-4.2 27.501zm63.6-30.201l.7 30.201h-7.6l-.2-27.201h-.2l-5 27.201h-7.7l-5-27.201h-.2l-.2 27.201h-7.6l.7-30.201h12.4l3.7 23.101h.1l3.8-23.101zm47.3 25.601c2.101 0 2.8-1.4 2.9-2.201.1-.299.1-.799.1-1.199v-22.2h7.7v21.7c0 .6-.1 1.699-.1 2-.5 5.6-5 7.5-10.601 7.5-5.6 0-10-1.801-10.5-7.5 0-.301-.1-1.4-.1-2v-21.7h7.7v22.399c0 .4 0 .801.1 1.201.101.6.701 2 2.801 2m-123.7-4c.3.699.2 1.699.1 2.199-.3 1-.9 2-3 2-1.9 0-3-1.1-3-2.699v-2.9h-8.1v2.299c0 6.801 5.3 8.801 11 8.801 5.5 0 10-1.9 10.7-6.9.4-2.6.1-4.299 0-5-1.3-6.299-12.8-8.2-13.6-11.799-.1-.6-.1-1.2 0-1.6.2-1 .9-2 2.8-2 1.8 0 2.8 1.1 2.8 2.7v1.9h7.5v-2.1c0-6.6-5.9-7.6-10.2-7.6-5.4 0-9.8 1.8-10.6 6.7-.2 1.3-.2 2.5.1 4.1 1.2 6.298 12 7.999 13.5 11.899m98.3 0c.3.699.2 1.6.1 2.199-.2 1-.9 2-2.9 2-1.9 0-3-1.1-3-2.699v-2.9h-8v2.299c0 6.701 5.3 8.701 10.9 8.701 5.4 0 9.9-1.801 10.6-6.801.4-2.6.101-4.299 0-4.9-1.3-6.299-12.6-8.099-13.399-11.599-.2-.6-.1-1.2 0-1.6.2-1 .9-2 2.7-2 1.8 0 2.8 1.1 2.8 2.7v1.9h7.5v-2.1c0-6.5-5.9-7.5-10.1-7.5-5.3 0-9.7 1.7-10.5 6.6-.2 1.3-.3 2.5.1 4 1.099 6.099 11.699 7.8 13.199 11.7m88.5 3.699c2.199 0 2.899-1.4 3.1-2.199.1-.301.1-.801.1-1.102v-4.398h-3.1v-4.401h10.7v8.1c0 .6 0 1-.101 2-.5 5.5-5.3 7.5-10.699 7.5-5.301 0-10.101-2-10.601-7.5-.1-1-.1-1.4-.1-2v-12.7c0-.5.1-1.5.1-2 .7-5.7 5.2-7.5 10.601-7.5 5.399 0 10.1 1.8 10.6 7.5.1.9.1 2 .1 2v1h-7.6v-1.7s0-.7-.1-1.2c-.101-.7-.7-2.2-3-2.2-2.2 0-2.801 1.5-3 2.2-.101.4-.101.9-.101 1.4v13.799c0 .4 0 .801.101 1.1 0 1.001.8 2.301 3 2.301" fill="#FFF"/><path d="M83.619 29.5422c-1-7.8-3.8-14.9-8.7-20.1-5.2-4.9-12.3-7.7-20.1-8.7-7.5-1-12.6-.7-12.6-.7s-5.1-.2-12.6.7c-7.8 1-14.9 3.8-20.1 8.7-4.9 5.2-7.7 12.3-8.7 20.1-1 7.5-.8 12.6-.8 12.6s-.2 5.1.7 12.6c1 7.799 3.8 14.9 8.7 20.1 5.2 4.9 12.3 7.699 20.1 8.699 7.5 1 12.6.701 12.6.701s5.1.199 12.6-.701c7.8-1 14.9-3.799 20.1-8.699 4.9-5.199 7.7-12.301 8.7-20.1 1-7.5.7-12.6.7-12.6s.4-5.1-.6-12.6" fill="#1E4BC6"/><path d="M15.519 29.8422h7.6c1.2 0 2.2.2 3.2.6 1 .4 1.8 1 2.5 1.7s1.3 1.5 1.7 2.5c.4 1 .6 2 .6 3.1s-.2 2.1-.6 3.1c-.4 1-1 1.801-1.7 2.5-.7.699-1.6 1.301-2.5 1.699-.9.4-2 .602-3.2.602h-3.4v6.299h-4.1v-22.1zm4.1 3.801v8.1h3.2c.6 0 1.2-.1 1.7-.3.5-.2.9-.5 1.3-.9s.6-.8.8-1.3c.2-.5.3-1 .3-1.6 0-.6-.1-1.1-.3-1.6-.2-.5-.5-.9-.8-1.3-.4-.4-.8-.7-1.3-.9-.5-.2-1.1-.3-1.7-.3h-3.2zm21 18.299c-1.1 0-2.1-.199-3.2-.6-1-.4-2-1-2.8-1.699-.8-.801-1.5-1.701-2-2.801s-.8-2.4-.8-3.8.2-2.7.7-3.8c.5-1.1 1.2-2 2-2.8.8-.8 1.8-1.3 2.8-1.7 1.1-.4 2.1-.6 3.3-.6 1.2 0 2.3.2 3.2.6 1 .4 1.8 1 2.5 1.7v-2.3h4.1v17.799h-4.1v-2.5c-.6.801-1.5 1.4-2.5 1.9-1 .402-2 .601-3.2.601m.7-3.699c.8 0 1.5-.1 2.1-.4.6-.3 1.2-.6 1.7-1.1.5-.5.8-1 1.1-1.6.3-.602.4-1.301.4-2 0-.701-.1-1.401-.4-2-.3-.6-.6-1.2-1.1-1.6-.5-.5-1-.8-1.7-1.1-.7-.4-1.4-.5-2.1-.5-.7 0-1.4.1-2.1.4-.7.3-1.2.6-1.7 1.1-.5.5-.9 1-1.1 1.6-.3.6-.4 1.3-.4 2s.1 1.399.4 1.999c.3.602.7 1.201 1.1 1.701.5.5 1.1.799 1.7 1.1.6.199 1.3.4 2.1.4m14.8-14.001l5 12.1 4.6-12.1h4.3l-10.5 25.8h-4.2l3.7-8.899-7.2-16.901z" fill="#FFF"/></svg>