<?xml version="1.0" encoding="UTF-8"?>
<!-- Generator: Adobe Illustrator 21.1.0, SVG Export Plug-In . SVG Version: 6.00 Build 0)  -->
<svg version="1.1" id="Layer_1" xmlns="http://www.w3.org/2000/svg" xmlns:xlink="http://www.w3.org/1999/xlink" x="0px" y="0px" viewBox="0 0 255.6 48" style="enable-background:new 0 0 255.6 48;" xml:space="preserve">
<style type="text/css">
	.st0{fill:#F5F8FF;}
	.st1{fill:#997FF9;}
</style>
<path class="st0" d="M39.6,15.2L28,15.1l2-2c1-1,1-2.7,0-3.7c-1-1-2.7-1-3.7,0l-6.4,6.4c-1,1-1,2.7,0,3.7c0.5,0.5,1.2,0.8,1.9,0.8  c0,0,0,0,0.1,0c0.1,0,0.1,0,0.2,0l17.6,0.1c6.1,0.1,11.2,5.1,11.2,11.1c0,3-1.2,5.8-3.3,7.9c-2.2,2.2-5,3.4-8,3.4H11  c-1.4,0-2.6,1.2-2.6,2.6c0,1.4,1.2,2.6,2.6,2.6h28.3c4.4,0,8.6-1.7,11.8-4.9C54.3,40,56,35.8,56,31.5C56,22.6,48.6,15.3,39.6,15.2z"/>
<path class="st0" d="M28.1,32.9l-1.9,1.9c-1,1-1,2.7,0,3.7c0.5,0.5,1.2,0.8,1.9,0.8c0.7,0,1.3-0.3,1.9-0.8l6.4-6.4c1-1,1-2.7,0-3.7  c-0.6-0.6-1.4-0.8-2.2-0.7c-0.1,0-0.1,0-0.2,0l-17.6-0.1c-6.1-0.1-11.2-5.1-11.2-11.1c0-3,1.2-5.8,3.3-7.9c2.2-2.2,5-3.4,8-3.4h28.3  c1.4,0,2.6-1.2,2.6-2.6c0-1.4-1.2-2.6-2.6-2.6H16.6C12.2,0,8,1.7,4.8,4.9C1.7,8,0,12.1,0,16.5c0,8.9,7.4,16.2,16.4,16.3L28.1,32.9z"/>
<path class="st0" d="M86.7,39.5c8.3,0,11.9-4.4,11.9-9.5c0-11.5-17.9-7.9-17.9-13.6c0-2.3,2-3.8,5.2-3.8c3.2,0,6.5,1.1,8.9,3.5  l3.1-4c-2.9-2.8-6.7-4.3-11.5-4.3c-6.7,0-11.2,3.9-11.2,9c0,11.3,17.9,7.3,17.9,13.8c0,2-1.7,4.2-6.2,4.2c-4.3,0-7.6-2-9.7-4.2  l-3,4.1C77,37.6,81.1,39.5,86.7,39.5z"/>
<path class="st0" d="M128.6,39l-13.4-16.2l12.5-14.5H121l-12,14.6V8.3h-5.4V39h5.4v-9.8l2.7-3.1L121.9,39H128.6z"/>
<path class="st0" d="M137.5,39V8.3h-5.4V39H137.5z"/>
<path class="st0" d="M170.6,39V8.3h-5.4v21.3L149.6,8.3h-5.5V39h5.4V17.1l16,21.9H170.6z"/>
<path class="st1" d="M182.6,39V27.5h8.1c6.4,0,10-4.4,10-9.6s-3.6-9.6-10-9.6h-13.5V39H182.6z M189.9,22.8h-7.4V13h7.4  c3,0,5.2,1.9,5.2,4.9S193,22.8,189.9,22.8z"/>
<path class="st1" d="M229.3,39L217.2,8.3h-6.7L198.5,39h6.1l2.3-5.9h14.1l2.3,5.9H229.3z M219.4,28.4h-11l5.5-14.6L219.4,28.4z"/>
<path class="st1" d="M243.7,39V26.3l11.9-17.9h-6.2l-8.4,13.2l-8.5-13.2h-6.2l11.9,17.9V39H243.7z"/>
</svg>