<svg width="239" height="50" viewBox="0 0 239 50" fill="none" xmlns="http://www.w3.org/2000/svg">
<path d="M45.4114 0C31.4873 0 20.4114 11.2342 20.4114 25C20.4114 38.924 31.6456 50 45.4114 50C59.1772 50 70.4114 38.7658 70.4114 25C70.5696 11.2342 59.1772 0 45.4114 0ZM45.4114 34.3354C40.3481 34.3354 36.0759 30.0633 36.0759 25C36.0759 19.9367 40.3481 15.6646 45.4114 15.6646C50.4747 15.6646 54.7468 19.9367 54.7468 25C54.7468 30.0633 50.6329 34.3354 45.4114 34.3354Z" fill="#8B3FFD"/>
<path d="M100.103 40.1143C100.103 37.2143 101.429 34.6457 103.5 32.9886C101.926 31.7457 100.02 31 97.9486 31C92.9771 31 89 35.06 89 40.1143C89 45.1686 92.9771 49.2286 97.9486 49.2286C100.02 49.2286 102.009 48.4829 103.5 47.24C101.429 45.5829 100.103 43.0143 100.103 40.1143Z" fill="#E30D17"/>
<path d="M100.103 40.1144C100.103 43.0144 101.428 45.5829 103.5 47.2401C105.571 45.5829 106.897 43.0144 106.897 40.1144C106.897 37.2144 105.571 34.6458 103.5 32.9886C101.428 34.6458 100.103 37.2144 100.103 40.1144Z" fill="#EB610A"/>
<path d="M117.337 45.0028V44.7542H117.254V44.6714H117.503V44.7542H117.42L117.337 45.0028ZM117.917 45.0028V44.7542V45.0028H117.752L117.669 44.8371V45.0857H117.586V44.7542H117.669L117.752 45.0028L117.834 44.7542H118L117.917 45.0028Z" fill="#F69F00"/>
<path d="M109.051 31C106.98 31 104.991 31.7457 103.5 32.9886C105.571 34.6457 106.897 37.2143 106.897 40.1143C106.897 43.0143 105.571 45.5829 103.5 47.24C104.991 48.4829 106.98 49.2286 109.051 49.2286C114.023 49.2286 118 45.1686 118 40.1143C118 35.06 113.94 31 109.051 31Z" fill="#F69F00"/>
<path d="M148.287 46.5549H144.648L146.922 34.2731H150.561L148.287 46.5549Z" fill="url(#paint0_linear_4_62)"/>
<path d="M141.646 34.2731L138.189 42.7339L137.734 40.9143L136.46 35.3648C136.46 35.3648 136.278 34.2731 134.732 34.2731H129V34.455C129 34.455 130.729 34.8189 132.821 35.9106L136.005 46.6459H139.735L145.558 34.364H141.646V34.2731Z" fill="url(#paint1_linear_4_62)"/>
<path d="M170.212 46.5549H173.578L170.667 34.2731H167.756C166.391 34.2731 166.118 35.1828 166.118 35.1828L160.751 46.5549H164.481L165.209 44.7354H169.848L170.212 46.5549ZM166.209 42.188L168.12 37.5482L169.212 42.188H166.209Z" fill="url(#paint2_linear_4_62)"/>
<path d="M160.933 37.1842L161.478 34.5459C161.478 34.5459 159.841 34 158.203 34C156.384 34 152.108 34.7278 152.108 38.0939C152.108 41.2781 157.112 41.2781 157.112 43.0067C157.112 44.7352 152.563 44.3713 151.107 43.3706L150.561 46.0999C150.561 46.0999 152.199 46.8277 154.655 46.8277C157.112 46.8277 160.933 45.736 160.933 42.6428C160.933 39.4586 155.838 39.1857 155.838 37.73C155.838 36.2744 159.386 36.4564 160.933 37.1842Z" fill="url(#paint3_linear_4_62)"/>
<path d="M137.734 40.8233L136.46 35.2737C136.46 35.2737 136.278 34.182 134.732 34.182H129V34.4549C129 34.4549 131.729 34.9098 134.368 36.8203C136.915 38.6398 137.734 40.8233 137.734 40.8233Z" fill="#F7A823"/>
<path d="M137.734 40.8233L136.46 35.2737C136.46 35.2737 136.278 34.182 134.732 34.182H129V34.4549C129 34.4549 131.729 34.9098 134.368 36.8203C136.915 38.6398 137.734 40.8233 137.734 40.8233Z" fill="url(#paint4_linear_4_62)"/>
<path fill-rule="evenodd" clip-rule="evenodd" d="M189.597 34.0007C190.056 34.0007 191.343 33.9086 191.895 35.8427C192.263 37.1321 192.906 39.3425 193.642 42.2898H194.009C194.929 39.1583 195.48 36.9479 195.848 35.8427C196.4 33.9086 197.779 34.0007 198.33 34.0007H202.651V48H198.238V39.7109H197.962L195.48 48H192.171L189.689 39.7109H189.413V48H185V34.0007H189.597ZM208.994 34.0007V42.2898H209.362L212.396 35.4743C212.947 34.0928 214.235 34.0007 214.235 34.0007H218.463V48H213.959V39.7109H213.591L210.649 46.5264C210.098 47.9079 208.811 48 208.811 48H204.582V34.0007H208.994ZM234 40.6319C233.356 42.474 231.426 43.7634 229.22 43.7634H224.531V47.9079H220.21V40.5398H234V40.6319Z" fill="#67C09E"/>
<path fill-rule="evenodd" clip-rule="evenodd" d="M229.108 34H220C220.179 36.6984 222.768 39 225.358 39H233.93C234.376 36.6984 232.68 34 229.108 34Z" fill="url(#paint5_linear_4_62)"/>
<path d="M20.4114 7.27869V43.6711H11.3924L0 7.27869H20.4114Z" fill="#8B3FFD"/>
<path d="M231.329 0.568604L225.791 14.1762C225.633 14.3344 225.633 14.6508 225.633 14.8091L225.474 15.1255L225.316 14.8091C225.316 14.6508 225.158 14.3344 225.158 14.1762L219.62 0.568604H212.5L221.835 23.8281L217.88 32.6888H225L238.133 0.568604H231.329Z" fill="black"/>
<path d="M178.797 1.83445C177.531 0.885054 175.949 0.252153 174.05 0.0939531C170.886 -0.222547 167.88 0.885053 165.823 2.94205V0.410454H159.335V23.67H165.823V11.4864C165.823 8.79645 166.297 8.00535 166.772 7.37245C167.563 6.10665 168.987 5.47375 170.728 5.47375C172.468 5.47375 174.05 6.26485 174.842 7.53065C175.316 8.48005 175.474 9.74585 175.474 10.3788C175.474 12.4358 175.474 23.67 175.474 23.67H181.962V9.58765C181.962 5.94835 180.854 3.41675 178.797 1.83445Z" fill="black"/>
<path d="M146.993 0.726838C143.829 -0.380762 140.348 -0.222462 137.183 1.20154C135.126 2.15094 133.228 3.73314 132.12 5.79014C131.012 7.53064 130.538 9.74584 130.538 12.1192C130.538 14.4926 131.012 16.7078 132.12 18.4483C133.228 20.1888 134.652 21.7711 136.55 22.7205C138.449 23.6699 140.664 24.3028 142.721 24.3028C143.829 24.3028 144.936 24.1445 146.044 23.8281C146.993 23.5116 147.943 23.1952 148.892 22.7205C150.791 21.6129 152.373 20.1888 153.323 18.4483C154.43 16.7078 154.905 14.4926 154.905 12.1192C155.063 6.89774 152.057 2.46734 146.993 0.726838ZM148.892 12.4357C148.734 14.4926 148.101 16.2331 146.835 17.3407C145.886 18.1319 144.462 18.6066 142.721 18.7648C140.981 18.7648 139.715 18.2901 138.607 17.3407C137.342 16.2331 136.709 14.4926 136.55 12.4357C136.392 10.0623 137.342 8.16354 139.082 6.89774C140.031 6.26484 141.297 5.79014 142.563 5.79014C143.987 5.79014 145.095 6.26484 146.202 6.89774C148.101 8.00534 149.05 10.0623 148.892 12.4357Z" fill="black"/>
<path d="M123.101 1.83437C121.835 0.885073 120.253 0.252172 118.354 0.0938721C118.038 0.0938721 117.563 0.0938721 117.247 0.0938721C114.715 0.0938721 112.5 1.20147 110.601 3.41667L110.285 3.89137H109.652C109.177 3.10027 108.544 2.46737 107.911 1.99267C106.645 1.04327 105.063 0.410372 103.164 0.252172C100.158 -0.0643275 97.7848 0.885073 95.7278 3.10027V0.726872H89.2405V23.9863H95.7278V11.8028V11.4863C95.7278 8.95467 96.0443 8.32177 96.5189 7.53067C97.3101 6.26477 98.7341 5.47367 100.316 5.63187C101.899 5.63187 103.323 6.42307 104.114 7.68887C104.747 8.63817 104.747 9.74577 104.747 10.8534V23.8281H111.234V11.3281C111.234 8.95467 111.55 8.16357 112.025 7.37237C112.816 6.10657 114.24 5.47367 115.823 5.47367C117.405 5.47367 118.671 6.26477 119.462 7.53067C119.937 8.32177 120.095 9.27117 120.095 9.90407C120.095 10.2205 120.095 10.537 120.095 10.6952V23.6699H126.582V9.42937C126.582 8.16357 126.424 6.89767 126.107 5.79007C125.475 4.20787 124.525 2.78377 123.101 1.83437Z" fill="black"/>
<path d="M206.329 16.7079C205.38 17.6573 203.164 19.3978 200.158 19.556C197.626 19.7142 195.728 18.9231 194.304 17.4991C193.671 16.8661 193.196 15.9168 192.88 14.9674H210.759V14.8092C210.918 13.8598 211.076 13.0687 211.076 12.1193C211.076 11.3282 210.918 10.2206 210.601 8.79654C209.81 6.10664 208.228 4.04974 206.171 2.46744C203.797 0.726939 201.582 0.252239 200.949 0.252239C196.361 -0.538861 191.139 1.51804 188.449 5.79024C186.55 8.79654 186.709 11.8028 186.709 12.7522C186.709 13.8598 186.867 17.3408 189.715 20.5054C193.038 24.1446 197.626 24.3028 199.05 24.4611C205.38 24.6193 209.652 20.6636 210.601 19.8725L206.329 16.7079ZM195.253 6.89784C196.202 6.26494 197.31 5.79024 198.734 5.79024C200.158 5.79024 201.266 6.26494 202.373 6.89784C203.323 7.68894 204.114 8.63834 204.588 9.74594H193.196C193.354 8.63834 194.145 7.53074 195.253 6.89784Z" fill="black"/>
<defs>
<linearGradient id="paint0_linear_4_62" x1="145.36" y1="38.8802" x2="170.657" y2="43.912" gradientUnits="userSpaceOnUse">
<stop stop-color="#222357"/>
<stop offset="1" stop-color="#254AA5"/>
</linearGradient>
<linearGradient id="paint1_linear_4_62" x1="130.993" y1="38.9143" x2="187.391" y2="70.0935" gradientUnits="userSpaceOnUse">
<stop stop-color="#222357"/>
<stop offset="1" stop-color="#254AA5"/>
</linearGradient>
<linearGradient id="paint2_linear_4_62" x1="162.294" y1="38.8802" x2="210.388" y2="59.6312" gradientUnits="userSpaceOnUse">
<stop stop-color="#222357"/>
<stop offset="1" stop-color="#254AA5"/>
</linearGradient>
<linearGradient id="paint3_linear_4_62" x1="151.875" y1="38.8119" x2="195.085" y2="54.0036" gradientUnits="userSpaceOnUse">
<stop stop-color="#222357"/>
<stop offset="1" stop-color="#254AA5"/>
</linearGradient>
<linearGradient id="paint4_linear_4_62" x1="130.051" y1="36.6733" x2="160.04" y2="52.9656" gradientUnits="userSpaceOnUse">
<stop stop-color="#222357"/>
<stop offset="1" stop-color="#254AA5"/>
</linearGradient>
<linearGradient id="paint5_linear_4_62" x1="233.936" y1="36.4615" x2="219.955" y2="36.4615" gradientUnits="userSpaceOnUse">
<stop stop-color="#1F5CD7"/>
<stop offset="1" stop-color="#02AEFF"/>
</linearGradient>
</defs>
</svg>
